<?xml version="1.0" ?><!DOCTYPE svg ><svg xmlns="http://www.w3.org/2000/svg"  width="100%" height="100%" viewBox="0 0 320 320" version="1.1" xml:space="preserve" style="fill-rule:evenodd;clip-rule:evenodd;stroke-linejoin:round;stroke-miterlimit:2;"><g transform="matrix(1,0,0,1,-2097.06,-2500.16)"><g transform="matrix(1,0,0,1,766.592,717.365)"><g transform="matrix(0.963855,0,0,0.963855,-2591.21,-767.018)"><path d="M4080.21,2765.85C4080.07,2766.04 4079.64,2766.81 4079.57,2766.98C4079.36,2767.45 4079.22,2767.96 4079.16,2768.49C4079.13,2768.7 4079.12,2769.73 4079.12,2769.73L4079.12,2853.7C4079.12,2854.9 4079.5,2856.06 4080.21,2857.03L4124.14,2916.79C4124.94,2917.87 4126.09,2918.63 4127.4,2918.94C4127.4,2918.94 4215.24,2939.55 4233.36,2943.67C4234.26,2943.87 4235.23,2943.87 4236.13,2943.67C4254.25,2939.55 4342.09,2918.94 4342.09,2918.94C4343.39,2918.63 4344.55,2917.87 4345.34,2916.79L4389.28,2857.03C4389.98,2856.06 4390.37,2854.9 4390.37,2853.7L4390.37,2769.93C4390.37,2769.44 4390.36,2768.96 4390.36,2768.88C4390.32,2768.05 4390.09,2767.26 4389.72,2766.56C4389.7,2766.53 4389.38,2766 4389.28,2765.85L4345.34,2706.09C4344.55,2705.01 4343.39,2704.25 4342.09,2703.94L4236.02,2679.19C4235.18,2678.99 4234.31,2678.99 4233.46,2679.19L4127.4,2703.94C4126.09,2704.25 4124.94,2705.01 4124.14,2706.09L4080.21,2765.85ZM4134.26,2908.99L4229.12,2931.12L4229.12,2858.16L4134.26,2836.02L4134.26,2908.99ZM4240.37,2858.16L4240.37,2931.12L4335.22,2908.99L4335.22,2836.02L4240.37,2858.16ZM4090.37,2851.85L4123.01,2896.26L4123.01,2830.73L4090.37,2786.33L4090.37,2851.85ZM4379.12,2786.33L4346.47,2830.73L4346.47,2896.26L4379.12,2851.85L4379.12,2786.33ZM4234.74,2690.44L4337.51,2714.43C4337.51,2714.43 4377.76,2769.18 4377.76,2769.18C4377.76,2769.18 4337.51,2823.94 4337.51,2823.94C4337.51,2823.94 4234.74,2847.92 4234.74,2847.92C4234.74,2847.92 4131.98,2823.94 4131.98,2823.94C4131.98,2823.94 4091.72,2769.18 4091.72,2769.18C4091.72,2769.18 4131.98,2714.43 4131.98,2714.43L4234.74,2690.44ZM4234.74,2723.12C4206.22,2723.12 4180.97,2730.11 4165.29,2740.63C4153.48,2748.56 4146.93,2758.61 4146.93,2769.18C4146.93,2779.75 4153.48,2789.81 4165.29,2797.73C4180.97,2808.25 4206.22,2815.25 4234.74,2815.25C4263.26,2815.25 4288.52,2808.25 4304.2,2797.73C4316.01,2789.81 4322.55,2779.75 4322.55,2769.18C4322.55,2758.61 4316.01,2748.56 4304.2,2740.63C4288.52,2730.11 4263.26,2723.12 4234.74,2723.12ZM4234.74,2734.37C4260.65,2734.37 4283.68,2740.41 4297.93,2749.97C4306.07,2755.44 4311.3,2761.89 4311.3,2769.18C4311.3,2776.47 4306.07,2782.93 4297.93,2788.39C4283.68,2797.95 4260.65,2804 4234.74,2804C4208.83,2804 4185.8,2797.95 4171.56,2788.39C4163.41,2782.93 4158.18,2776.47 4158.18,2769.18C4158.18,2761.89 4163.41,2755.44 4171.56,2749.97C4185.8,2740.41 4208.83,2734.37 4234.74,2734.37Z"/></g></g><g transform="matrix(1,0,0,1,766.592,717.365)"><g transform="matrix(0.763385,0,0,0.763385,-179.114,271.554)"><rect x="1977.49" y="1979.66" width="419.185" height="419.185" style="fill:none;"/></g></g></g></svg>